<?xml version="1.0" encoding="UTF-8" standalone="no"?>
<!-- Created with Inkscape (http://www.inkscape.org/) -->

<svg
   xmlns:dc="http://purl.org/dc/elements/1.1/"
   xmlns:cc="http://creativecommons.org/ns#"
   xmlns:rdf="http://www.w3.org/1999/02/22-rdf-syntax-ns#"
   xmlns:svg="http://www.w3.org/2000/svg"
   xmlns="http://www.w3.org/2000/svg"
   xmlns:sodipodi="http://sodipodi.sourceforge.net/DTD/sodipodi-0.dtd"
   xmlns:inkscape="http://www.inkscape.org/namespaces/inkscape"
   version="1.1"
   width="100"
   height="60"
   id="svg2"
   inkscape:version="0.48.1 "
   sodipodi:docname="Rennrad Alurahmen.svg">
  <sodipodi:namedview
     pagecolor="#ffffff"
     bordercolor="#666666"
     borderopacity="1"
     objecttolerance="10"
     gridtolerance="10"
     guidetolerance="10"
     inkscape:pageopacity="0"
     inkscape:pageshadow="2"
     inkscape:window-width="1280"
     inkscape:window-height="964"
     id="namedview32"
     showgrid="false"
     inkscape:zoom="11.88"
     inkscape:cx="50"
     inkscape:cy="26.633"
     inkscape:window-x="-4"
     inkscape:window-y="-4"
     inkscape:window-maximized="1"
     inkscape:current-layer="svg2" />
  <defs
     id="defs4" />
  <metadata
     id="metadata7">
    <rdf:RDF>
      <cc:Work
         rdf:about="">
        <dc:format>image/svg+xml</dc:format>
        <dc:type
           rdf:resource="http://purl.org/dc/dcmitype/StillImage" />
        <dc:title></dc:title>
      </cc:Work>
    </rdf:RDF>
  </metadata>
  <g
     id="g4731"
     clip-path="url(#clipPath4733)"
     transform="matrix(1.25,0,0,-1.25,-529.55,352)">
    <g
       id="g4737"
       clip-path="url(#clipPath4739)">
      <path
         inkscape:connector-curvature="0"
         style="fill:#000000;fill-opacity:1;fill-rule:nonzero;stroke:none"
         id="path4743"
         d="m 450.23,271.14 -4.66,-15.44 c -0.69,-2.18 -2.04,-4.26 -2.97,-5 -0.24,-0.2 -0.1,-0.94 0.5,-0.59 0.59,0.34 2.77,2.02 3.86,5.39 l 4.16,13.66 22.37,0 0.69,1.49 -22.67,0 0.2,0.49 -1.48,0" />
      <path
         inkscape:connector-curvature="0"
         style="fill:#000000;fill-opacity:1;fill-rule:nonzero;stroke:none"
         id="path4745"
         d="m 450.32,270.85 0.7,2.55 c -1.59,0 -4.61,0 -5.74,-1.66 -1.14,-1.64 -0.73,-3.08 0.81,-3.62 1.29,-0.44 2.8,-0.47 3.49,-0.47 l 0,-0.96 c -2.13,0 -3.56,0.2 -4.7,0.84 -0.89,0.49 -1.58,1.95 -1.34,2.99 0.33,1.38 0.82,2.16 1.96,2.85 1.14,0.69 3.34,1.04 4.53,1.04 1.19,0 1.48,-0.1 1.83,-0.15 0.35,-0.1 0.39,-0.22 0.2,-0.82 l -0.79,-2.74 -0.95,0.15" />
      <path
         inkscape:connector-curvature="0"
         style="fill:#000000;fill-opacity:1;fill-rule:nonzero;stroke:none"
         id="path4747"
         d="m 445.28,273.07 c -0.5,-0.24 -1.39,-0.34 -2.08,0 -0.7,0.35 -0.94,0.7 -1.19,1.09 -0.25,0.4 -0.6,0.55 -0.89,-0.15 -0.3,-0.69 -0.6,-1.98 -0.55,-2.97 0.1,-0.99 0.1,-2.37 -0.2,-2.97 -0.29,-0.59 0.1,-0.79 0.4,-0.34 0.3,0.44 0.45,1.48 0.4,2.13 -0.1,0.64 -0.1,1.33 0.1,1.83 0.49,-0.2 1.18,-0.65 1.48,-0.89 0.3,-0.25 0.69,-0.55 1.09,-0.7 l 1.44,2.97" />
      <path
         inkscape:connector-curvature="0"
         style="fill:#000000;fill-opacity:1;fill-rule:nonzero;stroke:none"
         id="path4749"
         d="m 430.33,250.45 c 0,7 5.67,12.67 12.67,12.67 7,0 12.67,-5.67 12.67,-12.67 0,-6.99 -5.67,-12.67 -12.67,-12.67 -7,0 -12.67,5.68 -12.67,12.67 z m 12.67,-14 c 7.73,0 14,6.27 14,14 0,7.73 -6.27,14 -14,14 -7.73,0 -14,-6.27 -14,-14 0,-7.73 6.27,-14 14,-14 z" />
      <path
         inkscape:connector-curvature="0"
         style="fill:#000000;fill-opacity:1;fill-rule:nonzero;stroke:none"
         id="path4751"
         d="m 471.61,250.45 c 0,7 5.67,12.67 12.67,12.67 7,0 12.67,-5.67 12.67,-12.67 0,-6.99 -5.67,-12.67 -12.67,-12.67 -7,0 -12.67,5.68 -12.67,12.67 z m 12.67,-14 c 7.73,0 14,6.27 14,14 0,7.73 -6.27,14 -14,14 -7.73,0 -14,-6.27 -14,-14 0,-7.73 6.27,-14 14,-14 z" />
      <path
         inkscape:connector-curvature="0"
         style="fill:#000000;fill-opacity:1;fill-rule:nonzero;stroke:none"
         id="path4753"
         d="m 463.34,247.48 c 0,2.44 1.97,4.41 4.41,4.41 2.43,0 4.41,-1.97 4.41,-4.41 0,-2.43 -1.98,-4.41 -4.41,-4.41 -2.44,0 -4.41,1.98 -4.41,4.41 z m 4.41,-3.57 c 1.97,0 3.57,1.6 3.57,3.57 0,1.97 -1.6,3.57 -3.57,3.57 -1.97,0 -3.57,-1.6 -3.57,-3.57 0,-1.97 1.6,-3.57 3.57,-3.57 z" />
      <path
         inkscape:connector-curvature="0"
         style="fill:#000000;fill-opacity:1;fill-rule:nonzero;stroke:none"
         id="path4755"
         d="m 474.98,270.65 -6.04,-21.98 14.75,2.67 0.1,-0.99 -15.35,-3.26 -1.28,0.29 -17.83,18.02 0.6,1.19 17.42,-17.62 6.04,21.97 1.59,-0.29" />
      <path
         inkscape:connector-curvature="0"
         style="fill:#000000;fill-opacity:1;fill-rule:nonzero;stroke:none"
         id="path4757"
         d="m 467.5,248.27 -1.78,-6.93 -2.53,0 0,-0.39 0.8,-0.3 c 0.59,-0.2 0.84,-0.34 1.23,-0.64 0.4,-0.3 1.38,0.1 1.64,0.49 0.39,0.65 -0.2,0.84 -0.2,0.84 l 1.58,6.54 -0.74,0.39" />
      <path
         inkscape:connector-curvature="0"
         style="fill:#000000;fill-opacity:1;fill-rule:nonzero;stroke:none"
         id="path4759"
         d="m 474.04,268.22 2.27,7.87 -1.14,0.18 -2.27,-7.87" />
      <path
         inkscape:connector-curvature="0"
         style="fill:#000000;fill-opacity:1;fill-rule:nonzero;stroke:none"
         id="path4761"
         d="m 470.27,277.03 c 1.69,0.1 4.01,-0.94 4.8,-1.63 0.8,-0.69 1.89,0 2.68,0.3 0.79,0.29 1.58,0.79 1.58,1.48 0,0.69 -0.39,1.78 -1.38,1.49 -0.99,-0.3 -3.87,-0.5 -5.45,-0.5 -1.58,0 -3.91,0.4 -4.55,-0.94 -0.26,-0.54 1.09,-0.39 2.32,-0.2" />
      <path
         inkscape:connector-curvature="0"
         style="fill:#000000;fill-opacity:1;fill-rule:nonzero;stroke:none"
         id="path4763"
         d="m 474.58,270.15 9.5,-18.51 -0.49,-0.79 -9.51,18.51" />
      <path
         inkscape:connector-curvature="0"
         style="fill:#000000;fill-opacity:1;fill-rule:nonzero;stroke:none"
         id="path4765"
         d="m 484.28,248.35 c 1.16,0 2.1,0.94 2.1,2.1 0,1.16 -0.94,2.1 -2.1,2.1 -1.16,0 -2.1,-0.94 -2.1,-2.1 0,-1.16 0.94,-2.1 2.1,-2.1" />
      <path
         inkscape:connector-curvature="0"
         style="fill:#000000;fill-opacity:1;fill-rule:nonzero;stroke:none"
         id="path4767"
         d="m 483.23,247.4 2.04,1.37 c 0.33,0.12 0.86,-0.48 0.27,-0.81 l -1.95,-1.35 c -0.33,-0.12 -0.62,0.53 -0.36,0.79" />
      <path
         inkscape:connector-curvature="0"
         style="fill:#000000;fill-opacity:1;fill-rule:nonzero;stroke:none"
         id="path4769"
         d="m 483.39,247.27 c 0.45,0 0.81,0.36 0.81,0.81 0,0.44 -0.36,0.8 -0.81,0.8 -0.44,0 -0.8,-0.36 -0.8,-0.8 0,-0.45 0.36,-0.81 0.8,-0.81" />
      <path
         inkscape:connector-curvature="0"
         style="fill:#000000;fill-opacity:1;fill-rule:nonzero;stroke:none"
         id="path4771"
         d="m 485.22,245.74 c 0.45,0 0.81,0.36 0.81,0.8 0,0.45 -0.36,0.81 -0.81,0.81 -0.44,0 -0.8,-0.36 -0.8,-0.81 0,-0.44 0.36,-0.8 0.8,-0.8" />
      <path
         inkscape:connector-curvature="0"
         style="fill:#000000;fill-opacity:1;fill-rule:nonzero;stroke:none"
         id="path4773"
         d="m 483.79,247.48 c 0.89,-0.44 1.04,-0.89 1.14,-1.24 l 0.69,0 c -0.1,0.5 -0.2,1.34 -0.35,1.59 l -1.48,-0.4" />
    </g>
  </g>
</svg>
